<svg width="57" height="57" viewBox="0 0 57 57" fill="none" xmlns="http://www.w3.org/2000/svg">
<path d="M45.3333 46.5V42.3333C45.3333 40.1232 44.4554 38.0036 42.8926 36.4408C41.3297 34.878 39.2101 34 37 34H20.3333C18.1232 34 16.0036 34.878 14.4408 36.4408C12.878 38.0036 12 40.1232 12 42.3333V46.5" stroke="#296EFF" stroke-opacity="0.4" stroke-width="3" stroke-linecap="round" stroke-linejoin="round"/>
<path d="M28.6673 25.6667C33.2697 25.6667 37.0007 21.9357 37.0007 17.3333C37.0007 12.731 33.2697 9 28.6673 9C24.0649 9 20.334 12.731 20.334 17.3333C20.334 21.9357 24.0649 25.6667 28.6673 25.6667Z" stroke="#296EFF" stroke-opacity="0.4" stroke-width="3" stroke-linecap="round" stroke-linejoin="round"/>
<circle cx="28.5" cy="28.5" r="27" stroke="#296EFF" stroke-opacity="0.4" stroke-width="3"/>
</svg>
