<svg width="120" height="120" viewBox="0 0 120 120" fill="none" xmlns="http://www.w3.org/2000/svg">
<path d="M100.756 106.989C98.91 100.41 92.1606 95.625 84.375 95.625C80.7128 95.601 77.1286 96.6834 74.0918 98.7306C72.2143 97.1456 69.9311 96.1172 67.5 95.7615V90C67.5 89.5027 67.3025 89.0258 66.9509 88.6742C66.5992 88.3225 66.1223 88.125 65.625 88.125H54.375C53.8778 88.125 53.4008 88.3225 53.0492 88.6742C52.6976 89.0258 52.5 89.5027 52.5 90V95.7562C50.0632 96.0974 47.7748 97.1283 45.9045 98.7272C42.8683 96.6822 39.2856 95.601 35.625 95.625C27.8395 95.625 21.09 100.41 19.2445 106.989C9.99941 107.405 7.0716 113.03 6.26947 117.816C6.22453 118.084 6.23866 118.36 6.3109 118.622C6.38313 118.885 6.51173 119.129 6.68775 119.337C6.86376 119.544 7.08297 119.711 7.3301 119.826C7.57724 119.941 7.84638 120 8.11879 120H111.881C112.154 120 112.423 119.941 112.67 119.826C112.917 119.712 113.136 119.545 113.312 119.337C113.488 119.129 113.617 118.885 113.689 118.622C113.762 118.36 113.776 118.084 113.731 117.816C112.928 113.03 110.003 107.405 100.756 106.989Z" fill="#296EFF"/>
<path d="M90.947 53.3147L76.508 36.813L76.1912 68.3252L88.5888 82.4942C88.84 82.7812 89.1728 82.9849 89.5427 83.0779C89.9126 83.1709 90.3021 83.1489 90.6592 83.0148C91.0163 82.8807 91.324 82.6409 91.5412 82.3274C91.7584 82.0138 91.8749 81.6415 91.875 81.2601V55.7842C91.875 54.8758 91.5453 53.9983 90.947 53.3147Z" fill="#296EFF"/>
<path d="M43.4919 36.813L29.0529 53.3147C28.4547 53.9983 28.125 54.8758 28.125 55.7842V81.2601C28.125 81.6415 28.2413 82.014 28.4585 82.3276C28.6757 82.6412 28.9834 82.8811 29.3405 83.0153C29.6976 83.1495 30.0872 83.1715 30.4572 83.0785C30.8271 82.9855 31.1599 82.7818 31.4111 82.4947L43.8088 68.3252L43.4919 36.813Z" fill="#296EFF"/>
<path d="M61.2469 0.474759C60.9017 0.172787 60.4586 0.00634766 60 0.00634766C59.5414 0.00634766 59.0983 0.172787 58.7531 0.474759C53.2509 5.36919 48.8467 11.3726 45.8301 18.0905C42.8134 24.8083 41.2525 32.0885 41.25 39.4526V71.2498L44.5727 81.217C44.697 81.5904 44.9357 81.9153 45.2549 82.1455C45.5741 82.3758 45.9577 82.4997 46.3513 82.4998H73.6485C74.042 82.4998 74.4256 82.376 74.7449 82.1459C75.0641 81.9158 75.3029 81.5911 75.4273 81.2177L78.75 71.2498V39.4526C78.7475 32.0885 77.1866 24.8083 74.1699 18.0905C71.1533 11.3726 66.7491 5.36919 61.2469 0.474759Z" fill="#E6ECFF"/>
<path d="M61.2454 0.473764C60.9008 0.171827 60.4582 0.00537109 60 0.00537109C59.5418 0.00537109 59.0993 0.171827 58.7546 0.473764C53.0019 5.59772 48.4555 11.9323 45.4421 19.0224C49.5046 22.4797 54.6655 24.3772 60 24.3749C65.3333 24.366 70.49 22.4625 74.55 19.0042C71.5367 11.9214 66.9932 5.59327 61.2454 0.473764Z" fill="#296EFF"/>
<path d="M72.9913 89.3032L69.2413 79.9282C69.1019 79.5804 68.8615 79.2823 68.5512 79.0723C68.2408 78.8623 67.8747 78.75 67.5 78.75H52.5C52.1252 78.75 51.7591 78.8623 51.4488 79.0723C51.1384 79.2823 50.898 79.5804 50.7587 79.9282L47.0087 89.3032C46.8948 89.5878 46.8524 89.8959 46.8852 90.2007C46.918 90.5054 47.025 90.7974 47.1968 91.0512C47.3686 91.305 47.6001 91.5128 47.8709 91.6564C48.1416 91.8 48.4435 91.8751 48.75 91.875H71.25C71.5565 91.8751 71.8583 91.8 72.1291 91.6564C72.3998 91.5128 72.6313 91.305 72.8031 91.0512C72.975 90.7974 73.082 90.5054 73.1148 90.2007C73.1476 89.8959 73.1052 89.5878 72.9913 89.3032Z" fill="#0052FF"/>
<path d="M63.6548 46.116L61.875 45.5231V39.375C62.3722 39.3754 62.8488 39.5731 63.2003 39.9247C63.5519 40.2762 63.7496 40.7529 63.75 41.25C63.75 41.7473 63.9476 42.2242 64.2992 42.5758C64.6508 42.9275 65.1277 43.125 65.625 43.125C66.1223 43.125 66.5992 42.9275 66.9508 42.5758C67.3025 42.2242 67.5 41.7473 67.5 41.25C67.4984 39.7587 66.9052 38.3289 65.8507 37.2743C64.7961 36.2198 63.3664 35.6266 61.875 35.625V33.75C61.875 33.2527 61.6775 32.7758 61.3258 32.4242C60.9742 32.0725 60.4973 31.875 60 31.875C59.5027 31.875 59.0258 32.0725 58.6742 32.4242C58.3225 32.7758 58.125 33.2527 58.125 33.75V35.625C56.6337 35.6266 55.2039 36.2198 54.1493 37.2743C53.0948 38.3289 52.5016 39.7587 52.5 41.25V42.2974C52.4991 43.4781 52.8701 44.6291 53.5603 45.587C54.2506 46.5449 55.225 47.2612 56.3453 47.634L58.125 48.2269V54.375C57.6279 54.3746 57.1512 54.1769 56.7997 53.8253C56.4481 53.4738 56.2505 52.9971 56.25 52.5C56.25 52.0027 56.0525 51.5258 55.7008 51.1742C55.3492 50.8225 54.8723 50.625 54.375 50.625C53.8777 50.625 53.4008 50.8225 53.0492 51.1742C52.6975 51.5258 52.5 52.0027 52.5 52.5C52.5016 53.9913 53.0948 55.4211 54.1493 56.4757C55.2039 57.5302 56.6337 58.1234 58.125 58.125V60C58.125 60.4973 58.3225 60.9742 58.6742 61.3258C59.0258 61.6775 59.5027 61.875 60 61.875C60.4973 61.875 60.9742 61.6775 61.3258 61.3258C61.6775 60.9742 61.875 60.4973 61.875 60V58.125C63.3664 58.1234 64.7961 57.5302 65.8507 56.4757C66.9052 55.4211 67.4984 53.9913 67.5 52.5V51.4526C67.5009 50.2719 67.1299 49.1209 66.4397 48.163C65.7495 47.2051 64.775 46.4888 63.6548 46.116ZM57.5318 44.0762C57.1582 43.9521 56.8333 43.7135 56.6031 43.3941C56.373 43.0748 56.2495 42.691 56.25 42.2974V41.25C56.2505 40.7529 56.4481 40.2762 56.7997 39.9247C57.1512 39.5731 57.6279 39.3754 58.125 39.375V44.2738L57.5318 44.0762ZM63.75 52.5C63.7496 52.9971 63.5519 53.4738 63.2003 53.8253C62.8488 54.1769 62.3722 54.3746 61.875 54.375V49.4762L62.4683 49.6738C62.8418 49.7979 63.1668 50.0365 63.3969 50.3559C63.627 50.6752 63.7506 51.059 63.75 51.4526V52.5Z" fill="#0052FF"/>
<path d="M118.125 120H1.875C1.37772 120 0.900806 119.802 0.549175 119.451C0.197544 119.099 0 118.622 0 118.125C0 117.628 0.197544 117.151 0.549175 116.799C0.900806 116.448 1.37772 116.25 1.875 116.25H118.125C118.622 116.25 119.099 116.448 119.451 116.799C119.802 117.151 120 117.628 120 118.125C120 118.622 119.802 119.099 119.451 119.451C119.099 119.802 118.622 120 118.125 120Z" fill="#0052FF"/>
<path d="M82.5 108.75C82.5 109.247 82.3024 109.724 81.9508 110.076C81.5992 110.428 81.1223 110.625 80.625 110.625C80.1277 110.625 79.6508 110.428 79.2991 110.076C78.9475 109.724 78.75 109.247 78.75 108.75C78.7514 106.843 78.3359 104.959 77.5327 103.229C76.7295 101.5 75.5579 99.9668 74.1 98.7376C75.1942 97.9873 76.3706 97.3645 77.6062 96.8813C80.7384 100.038 82.4972 104.303 82.5 108.75Z" fill="#0052FF"/>
<path d="M37.5 108.75C37.5 109.247 37.6975 109.724 38.0492 110.076C38.4008 110.428 38.8777 110.625 39.375 110.625C39.8723 110.625 40.3492 110.428 40.7008 110.076C41.0525 109.724 41.25 109.247 41.25 108.75C41.2486 106.843 41.664 104.959 42.4673 103.229C43.2705 101.5 44.4421 99.9668 45.9 98.7376C44.8058 97.9873 43.6294 97.3645 42.3938 96.8813C39.2616 100.038 37.5028 104.303 37.5 108.75Z" fill="#0052FF"/>
<path d="M46.3513 82.5H73.6485C74.042 82.5 74.4256 82.3762 74.7449 82.1461C75.0641 81.916 75.3029 81.5912 75.4273 81.2179L78.75 71.25H41.25L44.5727 81.2171C44.697 81.5906 44.9357 81.9155 45.2549 82.1457C45.5741 82.376 45.9577 82.4999 46.3513 82.5Z" fill="#296EFF"/>
</svg>
