<svg width="120" height="120" viewBox="0 0 120 120" fill="none" xmlns="http://www.w3.org/2000/svg">
<path d="M99.9 18.75L106.464 10.5469C106.685 10.2711 106.824 9.93849 106.864 9.58746C106.904 9.23643 106.844 8.88122 106.691 8.56278C106.538 8.24434 106.298 7.97563 105.999 7.78759C105.699 7.59956 105.353 7.49987 105 7.5H78.75C78.2527 7.5 77.7758 7.69754 77.4242 8.04918C77.0725 8.40081 76.875 8.87772 76.875 9.375V28.125C76.875 28.6223 77.0725 29.0992 77.4242 29.4508C77.7758 29.8025 78.2527 30 78.75 30H105C105.353 30.0002 105.7 29.9006 105.999 29.7126C106.298 29.5246 106.538 29.2559 106.691 28.9375C106.844 28.619 106.904 28.2638 106.864 27.9127C106.824 27.5616 106.686 27.229 106.465 26.9531L99.9 18.75Z" fill="#0052FF"/>
<path d="M119.766 113.469L80.3907 42.2188C80.2141 41.944 79.9714 41.7179 79.6847 41.5614C79.3981 41.4048 79.0767 41.3228 78.75 41.3228C78.4234 41.3228 78.102 41.4048 77.8153 41.5614C77.5287 41.7179 77.2859 41.944 77.1094 42.2188L48.1622 94.6063C47.9986 94.9017 47.9181 95.2359 47.929 95.5734C47.94 95.9109 48.0421 96.2391 48.2245 96.5233L60.2967 115.387C60.4662 115.652 60.6996 115.869 60.9755 116.02C61.2513 116.171 61.5606 116.25 61.875 116.25H118.125C118.451 116.25 118.771 116.165 119.055 116.003C119.338 115.841 119.574 115.609 119.739 115.328C119.905 115.047 119.994 114.728 119.999 114.402C120.004 114.076 119.923 113.754 119.766 113.469Z" fill="#376CFB"/>
<path d="M31.875 61.875C43.2659 61.875 52.5 52.6409 52.5 41.25C52.5 29.8591 43.2659 20.625 31.875 20.625C20.4841 20.625 11.25 29.8591 11.25 41.25C11.25 52.6409 20.4841 61.875 31.875 61.875Z" fill="#4294FF"/>
<path d="M35.5298 40.4901L33.75 39.8977V33.75C34.2472 33.7503 34.7239 33.9479 35.0755 34.2995C35.4271 34.6511 35.6247 35.1278 35.625 35.625C35.625 36.1223 35.8225 36.5992 36.1742 36.9508C36.5258 37.3025 37.0027 37.5 37.5 37.5C37.9973 37.5 38.4742 37.3025 38.8258 36.9508C39.1775 36.5992 39.375 36.1223 39.375 35.625C39.3734 34.1337 38.7802 32.7039 37.7257 31.6493C36.6711 30.5948 35.2413 30.0016 33.75 30V28.125C33.75 27.6277 33.5525 27.1508 33.2008 26.7992C32.8492 26.4475 32.3723 26.25 31.875 26.25C31.3777 26.25 30.9008 26.4475 30.5492 26.7992C30.1975 27.1508 30 27.6277 30 28.125V30C28.5087 30.0016 27.0789 30.5948 26.0243 31.6493C24.9698 32.7039 24.3766 34.1337 24.375 35.625V36.6724C24.3742 37.8532 24.7452 39.0042 25.4354 39.9623C26.1256 40.9203 27.1 41.6368 28.2203 42.0099L30 42.6023V48.75C29.5028 48.7497 29.0261 48.5521 28.6745 48.2005C28.3229 47.8489 28.1253 47.3722 28.125 46.875C28.125 46.3777 27.9275 45.9008 27.5758 45.5492C27.2242 45.1975 26.7473 45 26.25 45C25.7527 45 25.2758 45.1975 24.9242 45.5492C24.5725 45.9008 24.375 46.3777 24.375 46.875C24.3766 48.3663 24.9698 49.7961 26.0243 50.8507C27.0789 51.9052 28.5087 52.4984 30 52.5V54.375C30 54.8723 30.1975 55.3492 30.5492 55.7008C30.9008 56.0525 31.3777 56.25 31.875 56.25C32.3723 56.25 32.8492 56.0525 33.2008 55.7008C33.5525 55.3492 33.75 54.8723 33.75 54.375V52.5C35.2413 52.4984 36.6711 51.9052 37.7257 50.8507C38.7802 49.7961 39.3734 48.3663 39.375 46.875V45.8276C39.3758 44.6468 39.0048 43.4958 38.3146 42.5377C37.6244 41.5797 36.65 40.8632 35.5298 40.4901ZM29.4068 38.4521C29.0333 38.3276 28.7086 38.0886 28.4785 37.7692C28.2485 37.4498 28.1248 37.066 28.125 36.6724V35.625C28.1253 35.1278 28.3229 34.6511 28.6745 34.2995C29.0261 33.9479 29.5028 33.7503 30 33.75V38.6496L29.4068 38.4521ZM35.625 46.875C35.6247 47.3722 35.4271 47.8489 35.0755 48.2005C34.7239 48.5521 34.2472 48.7497 33.75 48.75V43.8504L34.3433 44.0479C34.7167 44.1724 35.0414 44.4114 35.2715 44.7308C35.5016 45.0502 35.6252 45.434 35.625 45.8276V46.875Z" fill="#0052FF"/>
<path d="M63.4534 113.364L33.4534 66.4891C33.273 66.2391 33.0359 66.0356 32.7615 65.8952C32.4871 65.7548 32.1832 65.6816 31.875 65.6816C31.5668 65.6816 31.263 65.7548 30.9886 65.8952C30.7142 66.0356 30.477 66.2391 30.2966 66.4891L0.296651 113.364C0.115331 113.647 0.0135468 113.974 0.00196644 114.31C-0.00961397 114.646 0.0694358 114.98 0.230831 115.275C0.392226 115.57 0.630024 115.816 0.919302 115.988C1.20858 116.159 1.53869 116.25 1.87503 116.25H61.875C62.2113 116.25 62.5415 116.159 62.8307 115.988C63.12 115.816 63.3578 115.57 63.5192 115.275C63.6806 114.98 63.7597 114.646 63.7481 114.31C63.7365 113.974 63.6347 113.647 63.4534 113.364Z" fill="#4294FF"/>
<path d="M78.75 45C78.2527 45 77.7758 44.8025 77.4242 44.4508C77.0725 44.0992 76.875 43.6223 76.875 43.125V5.625C76.875 5.12772 77.0725 4.65081 77.4242 4.29917C77.7758 3.94754 78.2527 3.75 78.75 3.75C79.2473 3.75 79.7242 3.94754 80.0758 4.29917C80.4275 4.65081 80.625 5.12772 80.625 5.625V43.125C80.625 43.6223 80.4275 44.0992 80.0758 44.4508C79.7242 44.8025 79.2473 45 78.75 45Z" fill="#4294FF"/>
<path d="M31.8751 86.2499C36.1009 86.2614 40.2055 84.8387 43.5177 82.2143L33.4534 66.4891C33.2731 66.2391 33.0359 66.0356 32.7615 65.8952C32.4871 65.7548 32.1833 65.6816 31.8751 65.6816C31.5668 65.6816 31.263 65.7548 30.9886 65.8952C30.7142 66.0356 30.477 66.2391 30.2967 66.4891L20.2322 82.2149C23.5446 84.8389 27.6493 86.2614 31.8751 86.2499Z" fill="#0052FF"/>
<path d="M78.75 63.7502C82.8745 63.7613 86.8856 62.4007 90.1521 59.8824L80.3906 42.2188C80.2141 41.944 79.9713 41.7179 79.6847 41.5614C79.398 41.4048 79.0766 41.3228 78.75 41.3228C78.4234 41.3228 78.102 41.4048 77.8153 41.5614C77.5287 41.7179 77.2859 41.944 77.1094 42.2188L67.3538 59.8738C70.6148 62.399 74.6256 63.7632 78.75 63.7502Z" fill="#0052FF"/>
</svg>
