<svg width="120" height="120" viewBox="0 0 120 120" fill="none" xmlns="http://www.w3.org/2000/svg">
<path d="M60 91.875C71.3909 91.875 80.625 82.6409 80.625 71.25C80.625 59.8591 71.3909 50.625 60 50.625C48.6091 50.625 39.375 59.8591 39.375 71.25C39.375 82.6409 48.6091 91.875 60 91.875Z" fill="#4294FF"/>
<path d="M63.6548 70.491L61.875 69.8981V63.75C62.3722 63.7504 62.8488 63.9481 63.2003 64.2997C63.5519 64.6512 63.7496 65.1279 63.75 65.625C63.75 66.1223 63.9476 66.5992 64.2992 66.9508C64.6508 67.3025 65.1277 67.5 65.625 67.5C66.1223 67.5 66.5992 67.3025 66.9508 66.9508C67.3025 66.5992 67.5 66.1223 67.5 65.625C67.4984 64.1337 66.9052 62.7039 65.8507 61.6493C64.7961 60.5948 63.3664 60.0016 61.875 60V58.125C61.875 57.6277 61.6775 57.1508 61.3258 56.7992C60.9742 56.4475 60.4973 56.25 60 56.25C59.5027 56.25 59.0258 56.4475 58.6742 56.7992C58.3225 57.1508 58.125 57.6277 58.125 58.125V60C56.6337 60.0016 55.2039 60.5948 54.1493 61.6493C53.0948 62.7039 52.5016 64.1337 52.5 65.625V66.6724C52.4991 67.8531 52.8701 69.0041 53.5603 69.962C54.2506 70.9199 55.225 71.6362 56.3453 72.009L58.125 72.6019V78.75C57.6279 78.7496 57.1512 78.5519 56.7997 78.2003C56.4481 77.8488 56.2505 77.3721 56.25 76.875C56.25 76.3777 56.0525 75.9008 55.7008 75.5492C55.3492 75.1975 54.8723 75 54.375 75C53.8777 75 53.4008 75.1975 53.0492 75.5492C52.6975 75.9008 52.5 76.3777 52.5 76.875C52.5016 78.3663 53.0948 79.7961 54.1493 80.8507C55.2039 81.9052 56.6337 82.4984 58.125 82.5V84.375C58.125 84.8723 58.3225 85.3492 58.6742 85.7008C59.0258 86.0525 59.5027 86.25 60 86.25C60.4973 86.25 60.9742 86.0525 61.3258 85.7008C61.6775 85.3492 61.875 84.8723 61.875 84.375V82.5C63.3664 82.4984 64.7961 81.9052 65.8507 80.8507C66.9052 79.7961 67.4984 78.3663 67.5 76.875V75.8276C67.5009 74.6469 67.1299 73.4959 66.4397 72.538C65.7495 71.5801 64.775 70.8638 63.6548 70.491ZM57.5318 68.4512C57.1582 68.3271 56.8333 68.0885 56.6031 67.7691C56.373 67.4498 56.2495 67.066 56.25 66.6724V65.625C56.2505 65.1279 56.4481 64.6512 56.7997 64.2997C57.1512 63.9481 57.6279 63.7504 58.125 63.75V68.6488L57.5318 68.4512ZM63.75 76.875C63.7496 77.3721 63.5519 77.8488 63.2003 78.2003C62.8488 78.5519 62.3722 78.7496 61.875 78.75V73.8512L62.4683 74.0488C62.8418 74.1729 63.1668 74.4115 63.3969 74.7309C63.627 75.0502 63.7506 75.434 63.75 75.8276V76.875Z" fill="#376CFB"/>
<path d="M101.25 50.625H90C88.9645 50.625 88.125 51.4645 88.125 52.5V90C88.125 91.0355 88.9645 91.875 90 91.875H101.25C102.286 91.875 103.125 91.0355 103.125 90V52.5C103.125 51.4645 102.286 50.625 101.25 50.625Z" fill="#376CFB"/>
<path d="M105 41.25H86.25C85.2145 41.25 84.375 42.0895 84.375 43.125V52.5C84.375 53.5355 85.2145 54.375 86.25 54.375H105C106.036 54.375 106.875 53.5355 106.875 52.5V43.125C106.875 42.0895 106.036 41.25 105 41.25Z" fill="#2946ED"/>
<path d="M30 50.625H18.75C17.7145 50.625 16.875 51.4645 16.875 52.5V90C16.875 91.0355 17.7145 91.875 18.75 91.875H30C31.0355 91.875 31.875 91.0355 31.875 90V52.5C31.875 51.4645 31.0355 50.625 30 50.625Z" fill="#376CFB"/>
<path d="M33.75 41.25H15C13.9645 41.25 13.125 42.0895 13.125 43.125V52.5C13.125 53.5355 13.9645 54.375 15 54.375H33.75C34.7855 54.375 35.625 53.5355 35.625 52.5V43.125C35.625 42.0895 34.7855 41.25 33.75 41.25Z" fill="#2946ED"/>
<path d="M105 88.125H86.25C85.2145 88.125 84.375 88.9645 84.375 90V99.375C84.375 100.411 85.2145 101.25 86.25 101.25H105C106.036 101.25 106.875 100.411 106.875 99.375V90C106.875 88.9645 106.036 88.125 105 88.125Z" fill="#2946ED"/>
<path d="M33.75 88.125H15C13.9645 88.125 13.125 88.9645 13.125 90V99.375C13.125 100.411 13.9645 101.25 15 101.25H33.75C34.7855 101.25 35.625 100.411 35.625 99.375V90C35.625 88.9645 34.7855 88.125 33.75 88.125Z" fill="#2946ED"/>
<path d="M110.625 31.875H9.375C8.33947 31.875 7.5 32.7145 7.5 33.75V43.125C7.5 44.1605 8.33947 45 9.375 45H110.625C111.661 45 112.5 44.1605 112.5 43.125V33.75C112.5 32.7145 111.661 31.875 110.625 31.875Z" fill="#376CFB"/>
<path d="M119.026 32.1056L60.9009 0.230635C60.6248 0.079318 60.3149 0 60 0C59.6851 0 59.3752 0.079318 59.0991 0.230635L0.974071 32.1056C0.608935 32.3057 0.320768 32.6216 0.155005 33.0035C-0.0107587 33.3854 -0.0446888 33.8117 0.0585638 34.215C0.161816 34.6183 0.396378 34.9758 0.725267 35.2311C1.05416 35.4864 1.45866 35.625 1.87501 35.625H118.125C118.541 35.6248 118.946 35.4861 119.274 35.2307C119.603 34.9753 119.837 34.6178 119.941 34.2146C120.044 33.8113 120.01 33.3851 119.844 33.0033C119.678 32.6215 119.39 32.3056 119.025 32.1056H119.026Z" fill="#4294FF"/>
<path d="M110.625 97.5H9.375C8.33947 97.5 7.5 98.3395 7.5 99.375V108.75C7.5 109.786 8.33947 110.625 9.375 110.625H110.625C111.661 110.625 112.5 109.786 112.5 108.75V99.375C112.5 98.3395 111.661 97.5 110.625 97.5Z" fill="#376CFB"/>
<path d="M118.125 106.875H1.875C0.839466 106.875 0 107.714 0 108.75V118.125C0 119.161 0.839466 120 1.875 120H118.125C119.161 120 120 119.161 120 118.125V108.75C120 107.714 119.161 106.875 118.125 106.875Z" fill="#4294FF"/>
</svg>
