<svg width="175" height="37" viewBox="0 0 175 37" fill="none" xmlns="http://www.w3.org/2000/svg">
<path d="M26.1 18.8C25.15 11.75 20.2 8.25 13.95 8.25C6.05 8.25 0.95 13.4 0.95 22.55C0.95 31.35 5.95 36.8 14 36.8C20.25 36.8 25.1 33.55 26.25 26.8H18.6C18.05 29.3 16.45 30.6 14.15 30.6C10.65 30.6 8.8 27.75 8.8 22.55C8.8 17.3 10.55 14.45 13.95 14.45C16.15 14.45 17.95 15.65 18.45 18.8H26.1ZM42.1773 36.8C50.1773 36.8 55.4273 31.65 55.4273 22.55C55.4273 13.75 50.3273 8.25 42.1773 8.25C34.1773 8.25 28.9773 13.4 28.9773 22.55C28.9773 31.4 34.0273 36.8 42.1773 36.8ZM42.1773 30.6C38.7273 30.6 36.8273 27.75 36.8273 22.55C36.8273 17.3 38.6773 14.45 42.1773 14.45C45.6773 14.45 47.5773 17.35 47.5773 22.55C47.5773 27.8 45.7273 30.6 42.1773 30.6ZM59.473 6.4H67.123V-1.43051e-06H59.473V6.4ZM59.473 36H67.123V9.1H59.473V36ZM72.266 36H79.916V20.55C79.916 17.1 81.866 14.45 84.916 14.45C87.716 14.45 89.066 16.2 89.066 19.6V36H96.716V18.05C96.716 11.4 92.866 8.25 87.716 8.25C84.416 8.25 81.666 9.65 79.916 12.65V9.1H72.266V36ZM101.855 25.65H115.705V19.1H101.855V25.65ZM146.249 27.15H138.249C137.449 29.6 135.749 30.7 133.249 30.7C129.949 30.7 127.949 28.4 127.549 24.1H146.049V22.4C146.049 13.6 140.999 8.25 132.949 8.25C124.949 8.25 119.749 13.4 119.749 22.55C119.749 31.4 124.899 36.8 133.249 36.8C139.849 36.8 144.849 33.35 146.249 27.15ZM132.949 14.35C135.749 14.35 137.549 16.2 138.149 19.7H127.699C128.299 16.2 130.099 14.35 132.949 14.35ZM165.424 36H174.274L165.024 22.1L173.624 9.1H165.624L162.174 14.8L160.924 17.45L159.624 14.8L156.124 9.1H147.274L155.924 22.1L146.674 36H154.724L158.774 29.35L160.074 26.75L161.324 29.35L165.424 36Z" fill="#0052FF"/>
</svg>
