<svg width="293" height="36" viewBox="0 0 293 36" fill="none" xmlns="http://www.w3.org/2000/svg">
<path d="M0.0500002 35H8.05V22H22.5V15.65H8.05V7.35H24.45V1H0.0500002V35ZM49.3742 35H57.9242L45.4742 1H35.8742L23.4742 35H31.5242L33.7742 28.65H47.1242L49.3742 35ZM39.4242 12.7L40.4742 8.85L41.4742 12.7L44.9242 22.5H35.9742L39.4242 12.7ZM67.7934 9.75C67.7934 7.75 69.5434 6.45 72.3434 6.45C75.6434 6.45 77.5934 8.05 78.2934 11.4H86.8434C85.7934 3.55 79.6934 0.199998 72.6434 0.199998C64.2934 0.199998 59.5434 4.8 59.5434 10.5C59.5434 23.95 79.5934 18.15 79.5934 25.75C79.5934 28.1 77.6934 29.55 74.0934 29.55C70.4934 29.55 68.1434 27.7 67.4934 24.35H59.0434C60.2434 32.1 65.9934 35.8 74.0434 35.8C81.9934 35.8 87.7934 31.75 87.7934 24.75C87.7934 10.85 67.7934 17 67.7934 9.75ZM99.2773 35H107.327V7.55H117.877V1H88.7273V7.55H99.2773V35ZM130.568 35H138.568V23.9H143.918C152.168 23.9 157.418 19.7 157.418 12.4C157.418 5.25 152.218 1 143.818 1H130.568V35ZM143.668 7.35C147.268 7.35 149.168 9.35 149.168 12.45C149.168 15.5 147.368 17.55 143.468 17.55H138.568V7.35H143.668ZM182.236 35H190.786L178.336 1H168.736L156.336 35H164.386L166.636 28.65H179.986L182.236 35ZM172.286 12.7L173.336 8.85L174.336 12.7L177.786 22.5H168.836L172.286 12.7ZM197.622 35H205.672V23.2L217.372 1H208.822L203.322 12.45L201.922 16.35L200.472 12.45L194.922 1H185.972L197.622 23.2V35ZM229.103 35H244.603C252.703 35 257.253 31.35 257.253 24.95C257.253 21.15 255.253 18.35 251.603 17.05C253.953 15.75 255.353 13.5 255.353 10.65C255.353 4.75 250.603 1 242.903 1H229.103V35ZM242.703 7.35C245.553 7.35 247.103 8.8 247.103 11.15C247.103 13.25 245.603 14.8 242.553 14.8H237.103V7.35H242.703ZM244.153 20.6C247.353 20.6 249.053 22.25 249.053 24.6C249.053 27.05 247.403 28.65 244.403 28.65H237.103V20.6H244.153ZM261.769 35H274.819C285.569 35 292.269 28.65 292.269 18.05C292.269 7.45 285.569 1 274.819 1H261.769V35ZM274.819 28.5H269.769V7.5H274.819C280.669 7.5 284.069 11.4 284.069 18.05C284.069 24.65 280.669 28.5 274.819 28.5Z" fill="#0052FF"/>
</svg>
