<svg width="129" height="129" viewBox="0 0 129 129" fill="none" xmlns="http://www.w3.org/2000/svg">
<path d="M64.5 128.883C100.122 128.883 129 100.031 129 64.4415C129 28.8514 100.122 0 64.5 0C28.8776 0 0 28.8514 0 64.4415C0 100.031 28.8776 128.883 64.5 128.883Z" fill="#009A61"/>
<path d="M30.155 98.7244L63.3067 26.0022L65.661 51.4243L43.7632 98.1444L30.155 98.7244Z" fill="white"/>
<path d="M32.5403 67.9858H95.2665L88.1715 76.8465H38.442L32.5403 67.9858Z" fill="#00364D"/>
<path d="M21.899 52.0364H104.716L97.6208 60.8971H27.8008L21.899 52.0364Z" fill="#00364D"/>
<path d="M96.4275 98.7244L63.3068 26.0022L60.9525 51.4243L82.818 98.1444L96.4275 98.7244Z" fill="white"/>
</svg>
